<svg width="30" height="31" viewBox="0 0 30 31" fill="none" xmlns="http://www.w3.org/2000/svg">
<g id="Frame 107">
<path id="Rectangle 37" d="M0.970063 12.8409C0.256452 10.1777 -0.100353 8.84604 0.145383 7.68994C0.361539 6.67301 0.894086 5.75061 1.6667 5.05495C2.54504 4.26409 3.87665 3.90728 6.53989 3.19367L11.533 1.85577C14.1962 1.14216 15.5278 0.785359 16.6839 1.03109C17.7009 1.24725 18.6233 1.7798 19.3189 2.55241C20.1098 3.43075 20.4666 4.76237 21.1802 7.4256L24.295 19.0501C25.0086 21.7134 25.3654 23.045 25.1197 24.2011C24.9035 25.218 24.371 26.1404 23.5983 26.8361C22.72 27.6269 21.3884 27.9838 18.7252 28.6974L13.7321 30.0353C11.0688 30.7489 9.73722 31.1057 8.58112 30.8599C7.56419 30.6438 6.64179 30.1112 5.94613 29.3386C5.15527 28.4603 4.79846 27.1287 4.08485 24.4654L0.970063 12.8409Z" fill="#2020DF"/>
<path id="Vector 44 (Stroke)" d="M29.3874 6.21938C29.8413 6.67332 30.0683 7.26829 30.0683 7.86325C30.0683 8.45822 29.8413 9.05318 29.3874 9.50713L22.4407 16.4538C20.4459 18.4487 18.014 19.9516 15.3377 20.8437C14.9825 20.9621 14.6447 20.6242 14.763 20.2691C15.6551 17.5928 17.1581 15.1609 19.1529 13.1661L26.0996 6.21938C27.0075 5.3115 28.4795 5.3115 29.3874 6.21938Z" fill="#9090EF"/>
</g>
</svg>
