<svg width="20" height="21" viewBox="0 0 20 21" fill="none" xmlns="http://www.w3.org/2000/svg">
<g id="Icon">
<g id="Vector 49">
<path d="M5 6.75C3.61929 6.75 2.5 7.86929 2.5 9.25V11.75C2.5 13.1307 3.61929 14.25 5 14.25V6.75Z" fill="black"/>
<path d="M5 6.75H7.92619C9.16335 6.75 9.78193 6.75 10.3832 6.65165C10.9171 6.56433 11.4399 6.41951 11.9426 6.21972C12.5089 5.99468 13.0393 5.67643 14.1001 5.03991L17.5 3V18L14.1001 15.9601C13.0393 15.3236 12.5089 15.0053 11.9426 14.7803C11.4399 14.5805 10.9171 14.4357 10.3832 14.3484C9.78193 14.25 9.16335 14.25 7.92619 14.25H5M5 6.75V14.25M5 6.75C3.61929 6.75 2.5 7.86929 2.5 9.25V11.75C2.5 13.1307 3.61929 14.25 5 14.25" stroke="black" stroke-width="2" stroke-linecap="round" stroke-linejoin="round"/>
</g>
<path id="Vector 46" d="M7.5 14.25V19.25" stroke="black" stroke-width="2" stroke-linecap="round" stroke-linejoin="round"/>
</g>
</svg>
