<svg width="20" height="20" viewBox="0 0 20 20" fill="none" xmlns="http://www.w3.org/2000/svg">
<path d="M5 7C4.06812 7 3.60218 7 3.23463 7.15224C2.74458 7.35523 2.35523 7.74458 2.15224 8.23463C2 8.60218 2 9.06812 2 10V10C2 10.9319 2 11.3978 2.15224 11.7654C2.35523 12.2554 2.74458 12.6448 3.23463 12.8478C3.60218 13 4.06812 13 5 13H7V7H5Z" fill="black"/>
<path d="M7 7H5C4.06812 7 3.60218 7 3.23463 7.15224C2.74458 7.35523 2.35523 7.74458 2.15224 8.23463C2 8.60218 2 9.06812 2 10V10C2 10.9319 2 11.3978 2.15224 11.7654C2.35523 12.2554 2.74458 12.6448 3.23463 12.8478C3.60218 13 4.06812 13 5 13H7M7 7H7.45058C8.40005 7 8.87479 7 9.3373 6.92738C9.74796 6.8629 10.1508 6.75592 10.5394 6.60816C10.977 6.44174 11.3891 6.2062 12.2135 5.73513L17 3V17L12.2135 14.2649C11.3891 13.7938 10.977 13.5583 10.5394 13.3918C10.1508 13.2441 9.74796 13.1371 9.3373 13.0726C8.87479 13 8.40005 13 7.45058 13H7M7 7V13" stroke="black" stroke-width="2" stroke-linejoin="round"/>
<path d="M7 14V17" stroke="black" stroke-width="2" stroke-linecap="round" stroke-linejoin="round"/>
</svg>
