<svg width="20" height="20" viewBox="0 0 20 20" fill="none" xmlns="http://www.w3.org/2000/svg">
<path d="M11.2535 14.2395L11.1265 14.6205C11.0744 14.7769 11.2231 14.9256 11.3795 14.8735L11.7605 14.7465C13.2332 14.2556 14.5715 13.4285 15.6693 12.3307L19 9C19.5523 8.44772 19.5523 7.55228 19 7C18.4477 6.44772 17.5523 6.44772 17 7L13.6693 10.3307C12.5715 11.4285 11.7444 12.7668 11.2535 14.2395Z" fill="black"/>
<path d="M7.8 18H9.8C8.11984 18 7.27976 18 6.63803 17.673C6.07354 17.3854 5.6146 16.9265 5.32698 16.362C5 15.7202 5 14.8802 5 13.2V6.8C5 5.11984 5 4.27976 5.32698 3.63803C5.6146 3.07354 6.07354 2.6146 6.63803 2.32698C7.27976 2 8.11984 2 9.8 2H7.8C6.11984 2 5.27976 2 4.63803 2.32698C4.07354 2.6146 3.6146 3.07354 3.32698 3.63803C3 4.27976 3 5.11984 3 6.8V13.2C3 14.8802 3 15.7202 3.32698 16.362C3.6146 16.9265 4.07354 17.3854 4.63803 17.673C5.27976 18 6.11984 18 7.8 18Z" fill="black"/>
<path d="M7.8 18H10.2C11.8802 18 12.7202 18 13.362 17.673C13.9265 17.3854 14.3854 16.9265 14.673 16.362C15 15.7202 15 14.8802 15 13.2V6.8C15 5.11984 15 4.27976 14.673 3.63803C14.3854 3.07354 13.9265 2.6146 13.362 2.32698C12.7202 2 11.8802 2 10.2 2H7.8M7.8 18C6.11984 18 5.27976 18 4.63803 17.673C4.07354 17.3854 3.6146 16.9265 3.32698 16.362C3 15.7202 3 14.8802 3 13.2V6.8C3 5.11984 3 4.27976 3.32698 3.63803C3.6146 3.07354 4.07354 2.6146 4.63803 2.32698C5.27976 2 6.11984 2 7.8 2M7.8 18H9.8C8.11984 18 7.27976 18 6.63803 17.673C6.07354 17.3854 5.6146 16.9265 5.32698 16.362C5 15.7202 5 14.8802 5 13.2V6.8C5 5.11984 5 4.27976 5.32698 3.63803C5.6146 3.07354 6.07354 2.6146 6.63803 2.32698C7.27976 2 8.11984 2 9.8 2H7.8" stroke="black" stroke-width="2"/>
</svg>
