<svg width="20" height="20" viewBox="0 0 20 20" fill="none" xmlns="http://www.w3.org/2000/svg">
<path d="M2 9.8C2 8.11984 2 7.27976 2.32698 6.63803C2.6146 6.07354 3.07354 5.6146 3.63803 5.32698C4.27976 5 5.11984 5 6.8 5H13.2C14.8802 5 15.7202 5 16.362 5.32698C16.9265 5.6146 17.3854 6.07354 17.673 6.63803C18 7.27976 18 8.11984 18 9.8V12.2C18 13.8802 18 14.7202 17.673 15.362C17.3854 15.9265 16.9265 16.3854 16.362 16.673C15.7202 17 14.8802 17 13.2 17H6.8C5.11984 17 4.27976 17 3.63803 16.673C3.07354 16.3854 2.6146 15.9265 2.32698 15.362C2 14.7202 2 13.8802 2 12.2V9.8Z" stroke="black" stroke-width="2"/>
<path d="M6.27064 4.18807L6 5H14L13.7294 4.18807C13.4671 3.40125 13.3359 3.00784 13.0927 2.71698C12.8779 2.46013 12.6021 2.26132 12.2905 2.13878C11.9376 2 11.523 2 10.6936 2H9.30643C8.47705 2 8.06236 2 7.70951 2.13878C7.39792 2.26132 7.12208 2.46013 6.90729 2.71698C6.66405 3.00784 6.53292 3.40125 6.27064 4.18807Z" fill="black"/>
<path d="M13 11C13 12.6569 11.6569 14 10 14C8.34314 14 7 12.6569 7 11C7 9.34315 8.34314 8 10 8C11.6569 8 13 9.34315 13 11Z" fill="black"/>
</svg>
