<svg width="20" height="20" viewBox="0 0 20 20" fill="none" xmlns="http://www.w3.org/2000/svg">
<path d="M9.25349 10.2395L9.12649 10.6205C9.07437 10.7769 9.22312 10.9256 9.37947 10.8735L9.76046 10.7465C11.2332 10.2556 12.5715 9.4285 13.6693 8.33075L18 4C18.5523 3.44772 18.5523 2.55228 18 2C17.4477 1.44772 16.5523 1.44771 16 2L11.6693 6.33075C10.5715 7.4285 9.74442 8.76675 9.25349 10.2395Z" fill="black"/>
<path d="M10 3H7.8C6.11984 3 5.27976 3 4.63803 3.32698C4.07354 3.6146 3.6146 4.07354 3.32698 4.63803C3 5.27976 3 6.11984 3 7.8V12.2C3 13.8802 3 14.7202 3.32698 15.362C3.6146 15.9265 4.07354 16.3854 4.63803 16.673C5.27976 17 6.11984 17 7.8 17H12.2C13.8802 17 14.7202 17 15.362 16.673C15.9265 16.3854 16.3854 15.9265 16.673 15.362C17 14.7202 17 13.8802 17 12.2V10" stroke="black" stroke-width="2" stroke-linecap="round"/>
</svg>
