<svg width="20" height="20" viewBox="0 0 20 20" fill="none" xmlns="http://www.w3.org/2000/svg">
<g id="Icon">
<path id="Vector 54" d="M1.875 10.0087V12.125C1.875 14.2252 1.875 15.2753 2.28373 16.0775C2.64325 16.7831 3.21693 17.3567 3.92254 17.7163C4.7247 18.125 5.7748 18.125 7.875 18.125H12.125C14.2252 18.125 15.2753 18.125 16.0775 17.7163C16.7831 17.3567 17.3567 16.7831 17.7163 16.0775C18.125 15.2753 18.125 14.2252 18.125 12.125V10.0087C18.125 8.94975 18.125 8.42025 17.9903 7.93137C17.871 7.49828 17.6748 7.09014 17.4112 6.72642C17.1136 6.31586 16.7001 5.98508 15.8732 5.32353L13.7482 3.62353C12.4105 2.55338 11.7416 2.0183 10.9999 1.81309C10.3456 1.63209 9.65442 1.63209 9.00013 1.81309C8.25837 2.0183 7.58952 2.55338 6.25183 3.62353L4.12683 5.32353C3.29989 5.98508 2.88642 6.31586 2.58881 6.72642C2.32515 7.09014 2.12899 7.49827 2.00968 7.93137C1.875 8.42025 1.875 8.94975 1.875 10.0087Z" stroke="black" stroke-width="2" stroke-linejoin="round"/>
<path id="Rectangle 38" d="M7.5 12.1429C7.5 10.9594 8.61929 10 10 10C11.3807 10 12.5 10.9594 12.5 12.1429V18.125H7.5V12.1429Z" fill="black"/>
</g>
</svg>
