<svg width="20" height="20" viewBox="0 0 20 20" fill="none" xmlns="http://www.w3.org/2000/svg">
<path d="M3 6.49999V13.2C3 14.8802 3 15.7202 3.32698 16.362C3.6146 16.9265 4.07354 17.3854 4.63803 17.673C5.27976 18 6.11984 18 7.8 18H12.2C13.8802 18 14.7202 18 15.362 17.673C15.9265 17.3854 16.3854 16.9265 16.673 16.362C17 15.7202 17 14.8802 17 13.2V6.49999M1 8.05555L7.03858 3.3216C8.09712 2.49176 8.62639 2.07684 9.21152 1.91745C9.72777 1.77682 10.2722 1.77682 10.7885 1.91745C11.3736 2.07684 11.9029 2.49176 12.9614 3.3216L19 8.05555" stroke="black" stroke-width="2" stroke-linecap="round" stroke-linejoin="round"/>
<path d="M8 13H12" stroke="black" stroke-width="2" stroke-linecap="round" stroke-linejoin="round"/>
</svg>
