<svg width="21" height="20" viewBox="0 0 21 20" fill="none" xmlns="http://www.w3.org/2000/svg">
<g id="Icon">
<g id="Rectangle 32">
<path d="M4.41669 6.5V13.5C4.41669 14.9001 4.41669 15.6002 4.68917 16.135C4.92885 16.6054 5.31131 16.9878 5.78171 17.2275C6.31649 17.5 7.01656 17.5 8.41669 17.5H10.9167C9.51656 17.5 8.81649 17.5 8.28171 17.2275C7.81131 16.9878 7.42885 16.6054 7.18917 16.135C6.91669 15.6002 6.91669 14.9001 6.91669 13.5V6.5C6.91669 5.09987 6.91669 4.3998 7.18917 3.86502C7.42885 3.39462 7.81131 3.01217 8.28171 2.77248C8.81649 2.5 9.51656 2.5 10.9167 2.5H8.41669C7.01656 2.5 6.31649 2.5 5.78171 2.77248C5.31131 3.01217 4.92885 3.39462 4.68917 3.86502C4.41669 4.3998 4.41669 5.09987 4.41669 6.5Z" fill="black"/>
<path d="M10.9167 2.5H8.41669C7.01656 2.5 6.31649 2.5 5.78171 2.77248C5.31131 3.01217 4.92885 3.39462 4.68917 3.86502C4.41669 4.3998 4.41669 5.09987 4.41669 6.5V13.5C4.41669 14.9001 4.41669 15.6002 4.68917 16.135C4.92885 16.6054 5.31131 16.9878 5.78171 17.2275C6.31649 17.5 7.01656 17.5 8.41669 17.5H10.9167M10.9167 2.5H12.9167M10.9167 2.5C9.51656 2.5 8.81649 2.5 8.28171 2.77248C7.81131 3.01217 7.42885 3.39462 7.18917 3.86502C6.91669 4.3998 6.91669 5.09987 6.91669 6.5V13.5C6.91669 14.9001 6.91669 15.6002 7.18917 16.135C7.42885 16.6054 7.81131 16.9878 8.28171 17.2275C8.81649 17.5 9.51656 17.5 10.9167 17.5M12.9167 2.5H13.1667M12.9167 2.5C14.3168 2.5 15.0169 2.5 15.5517 2.77248C16.0221 3.01217 16.4045 3.39462 16.6442 3.86502C16.9167 4.3998 16.9167 5.09987 16.9167 6.5V13.5C16.9167 14.9001 16.9167 15.6002 16.6442 16.135C16.4045 16.6054 16.0221 16.9878 15.5517 17.2275C15.0169 17.5 14.3168 17.5 12.9167 17.5M12.9167 17.5H10.9167M12.9167 17.5H13.1667" stroke="black" stroke-width="2" stroke-linejoin="round"/>
</g>
<path id="Vector 44 (Stroke)" d="M20.3006 6.61612C20.7888 7.10427 20.7888 7.89573 20.3006 8.38388L16.5655 12.119C15.4929 13.1916 14.1853 13.9997 12.7463 14.4794C12.5554 14.543 12.3737 14.3614 12.4373 14.1704C12.917 12.7314 13.7251 11.4238 14.7977 10.3513L18.5328 6.61612C19.021 6.12796 19.8125 6.12796 20.3006 6.61612Z" fill="black"/>
</g>
</svg>
