<svg width="20" height="20" viewBox="0 0 20 20" fill="none" xmlns="http://www.w3.org/2000/svg">
<path d="M13.0423 14H6.95767C5.48785 14 4.75295 14 4.20541 13.724C3.73642 13.4876 3.34486 13.0867 3.14348 12.6365C2.90838 12.111 2.99508 11.4816 3.16848 10.2228C3.82137 5.48319 5.16593 2 10 2C14.8341 2 16.1786 5.4832 16.8315 10.2228C17.0049 11.4816 17.0916 12.111 16.8565 12.6365C16.6551 13.0867 16.2636 13.4876 15.7946 13.724C15.2471 14 14.5121 14 13.0423 14Z" stroke="black" stroke-width="2" stroke-linecap="round" stroke-linejoin="round"/>
<path d="M10 19C8.88291 19 8.33732 18.2148 8.07085 17.4478C7.8111 16.7002 8.30526 16 8.90823 16H11.0918C11.6947 16 12.1889 16.7002 11.9292 17.4478C11.6627 18.2148 11.1171 19 10 19Z" fill="black"/>
</svg>
