<svg width="20" height="20" viewBox="0 0 20 20" fill="none" xmlns="http://www.w3.org/2000/svg">
<path d="M4 6.8C4 5.11984 4 4.27976 4.32698 3.63803C4.6146 3.07354 5.07354 2.6146 5.63803 2.32698C6.27976 2 7.11984 2 8.8 2H10.0118C10.7455 2 11.1124 2 11.4577 2.08289C11.7638 2.15638 12.0564 2.27759 12.3249 2.44208C12.6276 2.6276 12.887 2.88703 13.4059 3.40589L14.5941 4.59411C15.113 5.11297 15.3724 5.3724 15.5579 5.67515C15.7224 5.94356 15.8436 6.2362 15.9171 6.5423C16 6.88757 16 7.25445 16 7.98823V13.2C16 14.8802 16 15.7202 15.673 16.362C15.3854 16.9265 14.9265 17.3854 14.362 17.673C13.7202 18 12.8802 18 11.2 18H8.8C7.11984 18 6.27976 18 5.63803 17.673C5.07354 17.3854 4.6146 16.9265 4.32698 16.362C4 15.7202 4 14.8802 4 13.2V6.8Z" stroke="black" stroke-width="2"/>
<path d="M12.9515 5.95147L12.0485 5.04853C11.406 4.40596 11.0847 4.08468 10.8088 4.06297C10.5695 4.04414 10.3356 4.14102 10.1797 4.32357C10 4.53397 10 4.98833 10 5.89706V6.4C10 6.96005 10 7.24008 10.109 7.45399C10.2049 7.64215 10.3578 7.79513 10.546 7.89101C10.7599 8 11.0399 8 11.6 8H12.1029C13.0117 8 13.466 8 13.6764 7.8203C13.859 7.66439 13.9559 7.43049 13.937 7.19116C13.9153 6.91532 13.594 6.59404 12.9515 5.95147Z" fill="black"/>
</svg>
