<svg width="20" height="20" viewBox="0 0 20 20" fill="none" xmlns="http://www.w3.org/2000/svg">
<g id="Icon">
<path id="Polygon 2" d="M7.03079 3.05403C8.11249 2.42951 8.65335 2.11725 9.22835 1.99503C9.73711 1.88689 10.2629 1.88689 10.7717 1.99503C11.3467 2.11725 11.8875 2.42951 12.9693 3.05403L14.5308 3.95559C15.6125 4.58011 16.1533 4.89237 16.5467 5.32923C16.8947 5.71576 17.1576 6.17113 17.3184 6.6658C17.5 7.22488 17.5 7.8494 17.5 9.09845V10.9016C17.5 12.1506 17.5 12.7751 17.3184 13.3342C17.1576 13.8289 16.8947 14.2842 16.5467 14.6708C16.1533 15.1076 15.6125 15.4199 14.5308 16.0444L12.9693 16.946C11.8875 17.5705 11.3467 17.8828 10.7717 18.005C10.2629 18.1131 9.73711 18.1131 9.22835 18.005C8.65335 17.8828 8.11249 17.5705 7.03079 16.946L5.46925 16.0444C4.38755 15.4199 3.8467 15.1076 3.45335 14.6708C3.10531 14.2842 2.84241 13.8289 2.68168 13.3342C2.50002 12.7751 2.50002 12.1506 2.50002 10.9016V9.09845C2.50002 7.8494 2.50002 7.22488 2.68168 6.6658C2.84241 6.17113 3.10531 5.71576 3.45335 5.32923C3.8467 4.89237 4.38755 4.58011 5.46925 3.95559L7.03079 3.05403Z" stroke="black" stroke-width="2"/>
<path id="Ellipse 16" d="M11.875 10C11.875 11.0355 11.0356 11.875 10 11.875C8.9645 11.875 8.12503 11.0355 8.12503 10C8.12503 8.96447 8.9645 8.125 10 8.125C11.0356 8.125 11.875 8.96447 11.875 10Z" fill="black"/>
</g>
</svg>
