<svg width="20" height="20" viewBox="0 0 20 20" fill="none" xmlns="http://www.w3.org/2000/svg">
<path d="M11.875 10C11.875 11.0355 11.0355 11.875 10 11.875C8.96447 11.875 8.125 11.0355 8.125 10C8.125 8.96447 8.96447 8.125 10 8.125C11.0355 8.125 11.875 8.96447 11.875 10Z" fill="black"/>
<path d="M7.57513 3.38564C8.45852 2.88085 8.90021 2.62845 9.3698 2.52966C9.78529 2.44225 10.2147 2.44225 10.6302 2.52966C11.0998 2.62845 11.5415 2.88085 12.4249 3.38564L14.5751 4.61436C15.4585 5.11916 15.9002 5.37155 16.2214 5.72466C16.5057 6.03709 16.7204 6.40516 16.8516 6.805C17 7.2569 17 7.76169 17 8.77128V11.2287C17 12.2383 17 12.7431 16.8516 13.195C16.7204 13.5948 16.5057 13.9629 16.2214 14.2753C15.9002 14.6285 15.4585 14.8808 14.5751 15.3856L12.4249 16.6144C11.5415 17.1192 11.0998 17.3716 10.6302 17.4703C10.2147 17.5578 9.78529 17.5578 9.3698 17.4703C8.90021 17.3716 8.45852 17.1192 7.57513 16.6144L5.42487 15.3856C4.54148 14.8808 4.09979 14.6285 3.77855 14.2753C3.49432 13.9629 3.27961 13.5948 3.14835 13.195C3 12.7431 3 12.2383 3 11.2287V8.77128C3 7.76169 3 7.2569 3.14835 6.805C3.27961 6.40516 3.49432 6.03709 3.77855 5.72466C4.09979 5.37155 4.54148 5.11916 5.42487 4.61436L7.57513 3.38564Z" stroke="black" stroke-width="2"/>
</svg>
