<svg width="20" height="20" viewBox="0 0 20 20" fill="none" xmlns="http://www.w3.org/2000/svg">
<path d="M3.55349 11.7442L3 7H17L16.4465 11.7442C16.2294 13.605 16.1209 14.5354 15.7122 15.2365C15.3521 15.8542 14.8319 16.3462 14.2151 16.6524C13.5151 17 12.64 17 10.8898 17H9.11025C7.36 17 6.48488 17 5.78486 16.6524C5.1681 16.3462 4.64792 15.8542 4.28783 15.2365C3.87913 14.5354 3.77058 13.605 3.55349 11.7442Z" stroke="black" stroke-width="2" stroke-linecap="round" stroke-linejoin="round"/>
<path d="M7 7V6C7 4.34315 8.34315 3 10 3C11.6569 3 13 4.34315 13 6V7" stroke="black" stroke-width="2" stroke-linecap="round"/>
</svg>
