<svg width="20" height="20" viewBox="0 0 20 20" fill="none" xmlns="http://www.w3.org/2000/svg">
<path d="M17 10L14 7V10V13L17 10Z" fill="black"/>
<path d="M10.5 3.75L7.6576 3.27627C6.05517 3.00919 5.25396 2.87566 4.62954 3.10759C4.08158 3.31111 3.62227 3.70021 3.33143 4.20725C3 4.78505 3 5.59731 3 7.22184L3 12.7782C3 14.4027 3 15.215 3.33143 15.7928C3.62227 16.2998 4.08158 16.6889 4.62954 16.8924C5.25396 17.1243 6.05517 16.9908 7.6576 16.7237L10.5 16.25M9 10L14 10M14 10V13L17 10L14 7V10Z" stroke="black" stroke-width="2" stroke-linecap="round" stroke-linejoin="round"/>
</svg>
