<svg width="20" height="20" viewBox="0 0 20 20" fill="none" xmlns="http://www.w3.org/2000/svg">
<path d="M10 8L13 12L18 4" stroke="black" stroke-width="2" stroke-linecap="round" stroke-linejoin="round"/>
<path fill-rule="evenodd" clip-rule="evenodd" d="M5.8776 1.61726L5.83771 1.62795C5.06017 1.83628 4.41844 2.00822 3.90713 2.191C3.37607 2.38084 2.90249 2.60978 2.49769 2.97426C1.86994 3.53949 1.43725 4.28894 1.26162 5.11519C1.14837 5.64799 1.1869 6.1726 1.28802 6.72743C1.38538 7.26163 1.55734 7.90335 1.7657 8.68089L1.77639 8.72078L3.43283 14.9027L3.44352 14.9426C3.65184 15.7201 3.82378 16.3619 4.00657 16.8732C4.19641 17.4042 4.42535 17.8778 4.78983 18.2826C5.35505 18.9104 6.1045 19.3431 6.93076 19.5187C7.46356 19.6319 7.98817 19.5934 8.543 19.4923C9.07719 19.3949 9.7189 19.223 10.4964 19.0146L10.5363 19.0039L12.8546 18.3828L12.8945 18.3721C13.672 18.1637 14.3137 17.9918 14.825 17.809C15.3561 17.6192 15.8297 17.3902 16.2345 17.0258C16.8622 16.4605 17.2949 15.7111 17.4706 14.8848C17.5838 14.352 17.5453 13.8274 17.4442 13.2726C17.3468 12.7384 17.1748 12.0967 16.9665 11.3191L16.9655 11.3155L15.544 13.59C15.5249 13.6205 15.5053 13.6506 15.4853 13.6803C15.555 14.0818 15.5493 14.3039 15.5143 14.469C15.4264 14.8821 15.2101 15.2569 14.8962 15.5395C14.7658 15.6569 14.566 15.7777 14.1518 15.9257C13.7266 16.0778 13.1643 16.2292 12.3369 16.4509L10.0187 17.0721C9.19132 17.2938 8.62866 17.4437 8.18439 17.5247C7.75165 17.6036 7.51828 17.5989 7.34658 17.5624C6.93345 17.4746 6.55873 17.2582 6.27611 16.9444C6.15866 16.8139 6.03792 16.6142 5.88985 16.1999C5.73784 15.7747 5.58638 15.2125 5.36468 14.3851L3.70824 8.20314C3.48654 7.37575 3.33658 6.8131 3.25561 6.36883C3.17674 5.93608 3.18142 5.70271 3.21792 5.53102C3.30573 5.11789 3.52208 4.74316 3.83595 4.46055C3.9664 4.3431 4.16616 4.22235 4.58036 4.07429C5.0056 3.92227 5.56785 3.77081 6.39524 3.54911L8.71346 2.92795C9.54086 2.70625 10.1035 2.55629 10.5478 2.47532C10.9805 2.39645 11.2139 2.40114 11.3856 2.43763C11.7987 2.52544 12.1734 2.74179 12.4561 3.05566C12.5735 3.18611 12.6943 3.38587 12.8423 3.80008C12.9943 4.22531 13.1458 4.78756 13.3675 5.61495L13.3931 5.71059L14.8249 3.4198C14.792 3.31778 14.759 3.22014 14.7256 3.12684C14.5358 2.59578 14.3068 2.1222 13.9423 1.7174C13.3771 1.08966 12.6277 0.656962 11.8014 0.481335C11.2686 0.368085 10.744 0.406612 10.1892 0.507733C9.65498 0.605094 9.01326 0.777053 8.23572 0.985407L8.19583 0.996097L5.8776 1.61726Z" fill="black"/>
</svg>
