<svg width="20" height="20" viewBox="0 0 20 20" fill="none" xmlns="http://www.w3.org/2000/svg">
<path d="M10.0001 2.76393L10.4898 3.75633C11.1709 5.13633 11.5114 5.82632 12.0092 6.36188C12.45 6.83606 12.9786 7.22014 13.5658 7.49278C14.229 7.80072 14.9904 7.91136 16.5133 8.13266L17.6085 8.2918L16.816 9.06427C15.714 10.1384 15.163 10.6755 14.8075 11.3145C14.4927 11.8802 14.2908 12.5016 14.213 13.1443C14.125 13.8702 14.2551 14.6286 14.5153 16.1453L14.7023 17.2361L13.7228 16.7211C12.3606 16.005 11.6796 15.6469 10.9621 15.5062C10.3268 15.3817 9.67334 15.3817 9.03805 15.5062C8.32054 15.6469 7.63947 16.005 6.27732 16.7211L5.29777 17.2361L5.48485 16.1453C5.745 14.6286 5.87507 13.8702 5.78714 13.1443C5.70928 12.5016 5.50736 11.8802 5.19259 11.3145C4.83707 10.6755 4.28607 10.1384 3.18408 9.06427L2.3916 8.2918L3.48678 8.13266C5.00969 7.91136 5.77115 7.80072 6.43432 7.49278C7.0215 7.22014 7.55013 6.83606 7.99088 6.36188C8.48867 5.82633 8.82921 5.13633 9.51028 3.75633L10.0001 2.76393Z" stroke="black" stroke-width="2" stroke-linejoin="round"/>
</svg>
