<svg width="20" height="20" viewBox="0 0 20 20" fill="none" xmlns="http://www.w3.org/2000/svg">
<path d="M10 3L7 6H10H13L10 3Z" fill="black"/>
<path d="M2.5 9.5L2.9144 11.9864C3.21126 13.7676 3.3597 14.6582 3.80413 15.3265C4.19589 15.9156 4.74631 16.3819 5.39183 16.6715C6.12412 17 7.027 17 8.83276 17H11.1672C12.973 17 13.8759 17 14.6082 16.6715C15.2537 16.3819 15.8041 15.9156 16.1959 15.3265C16.6403 14.6582 16.7887 13.7676 17.0856 11.9864L17.5 9.5M10 11V6M10 6H13L10 3L7 6H10Z" stroke="black" stroke-width="2" stroke-linecap="round" stroke-linejoin="round"/>
</svg>
